<mxfile host="65bd71144e">
    <diagram name="ps2.6" id="NhZ0wlsCt8plg-N3BSjL">
        <mxGraphModel dx="508" dy="371" grid="1" gridSize="10" guides="1" tooltips="1" connect="1" arrows="1" fold="1" page="1" pageScale="1" pageWidth="827" pageHeight="1169" math="0" shadow="0">
            <root>
                <mxCell id="0"/>
                <mxCell id="1" parent="0"/>
                <mxCell id="7" value="" style="edgeStyle=none;html=1;" parent="1" source="2" target="6" edge="1">
                    <mxGeometry relative="1" as="geometry"/>
                </mxCell>
                <mxCell id="2" value="开始&lt;br&gt;" style="strokeWidth=2;html=1;shape=mxgraph.flowchart.terminator;whiteSpace=wrap;" parent="1" vertex="1">
                    <mxGeometry x="40" y="120" width="80" height="40" as="geometry"/>
                </mxCell>
                <mxCell id="9" value="" style="edgeStyle=none;html=1;" parent="1" source="6" target="8" edge="1">
                    <mxGeometry relative="1" as="geometry"/>
                </mxCell>
                <mxCell id="6" value="t = 1" style="whiteSpace=wrap;html=1;strokeWidth=2;" parent="1" vertex="1">
                    <mxGeometry x="47.5" y="190" width="65" height="20" as="geometry"/>
                </mxCell>
                <mxCell id="11" value="" style="edgeStyle=none;html=1;" parent="1" source="8" target="10" edge="1">
                    <mxGeometry relative="1" as="geometry"/>
                </mxCell>
                <mxCell id="8" value="i = 2" style="whiteSpace=wrap;html=1;strokeWidth=2;" parent="1" vertex="1">
                    <mxGeometry x="50" y="240" width="60" height="20" as="geometry"/>
                </mxCell>
                <mxCell id="33" style="edgeStyle=none;html=1;exitX=0.5;exitY=1;exitDx=0;exitDy=0;entryX=0.5;entryY=0;entryDx=0;entryDy=0;" parent="1" source="15" target="17" edge="1">
                    <mxGeometry relative="1" as="geometry"/>
                </mxCell>
                <mxCell id="15" value="i = i + 1" style="whiteSpace=wrap;html=1;strokeWidth=2;" parent="1" vertex="1">
                    <mxGeometry x="50" y="340" width="60" height="20" as="geometry"/>
                </mxCell>
                <mxCell id="22" style="edgeStyle=none;html=1;exitX=0.5;exitY=1;exitDx=0;exitDy=0;entryX=0.5;entryY=0;entryDx=0;entryDy=0;entryPerimeter=0;" parent="1" source="17" target="21" edge="1">
                    <mxGeometry relative="1" as="geometry"/>
                </mxCell>
                <mxCell id="52" value="Y" style="edgeLabel;html=1;align=left;verticalAlign=middle;resizable=0;points=[];" parent="22" vertex="1" connectable="0">
                    <mxGeometry x="-0.4782" y="7" relative="1" as="geometry">
                        <mxPoint x="-7" y="2" as="offset"/>
                    </mxGeometry>
                </mxCell>
                <mxCell id="34" style="edgeStyle=none;html=1;exitX=1;exitY=0.5;exitDx=0;exitDy=0;arcSize=0;" parent="1" source="17" edge="1">
                    <mxGeometry relative="1" as="geometry">
                        <mxPoint x="80" y="270" as="targetPoint"/>
                        <Array as="points">
                            <mxPoint x="140" y="405"/>
                            <mxPoint x="140" y="270"/>
                        </Array>
                    </mxGeometry>
                </mxCell>
                <mxCell id="53" value="N" style="edgeLabel;html=1;align=center;verticalAlign=bottom;resizable=0;points=[];" parent="34" vertex="1" connectable="0">
                    <mxGeometry x="-0.8889" relative="1" as="geometry">
                        <mxPoint as="offset"/>
                    </mxGeometry>
                </mxCell>
                <mxCell id="17" value="i &amp;gt; 5" style="rhombus;whiteSpace=wrap;html=1;strokeWidth=2;" parent="1" vertex="1">
                    <mxGeometry x="50" y="390" width="60" height="30" as="geometry"/>
                </mxCell>
                <mxCell id="21" value="结束" style="strokeWidth=2;html=1;shape=mxgraph.flowchart.terminator;whiteSpace=wrap;" parent="1" vertex="1">
                    <mxGeometry x="40" y="450" width="80" height="40" as="geometry"/>
                </mxCell>
                <mxCell id="32" style="edgeStyle=none;html=1;exitX=0.5;exitY=1;exitDx=0;exitDy=0;entryX=0.5;entryY=0;entryDx=0;entryDy=0;" parent="1" source="10" target="15" edge="1">
                    <mxGeometry relative="1" as="geometry"/>
                </mxCell>
                <mxCell id="10" value="t = t * i" style="whiteSpace=wrap;html=1;strokeWidth=2;" parent="1" vertex="1">
                    <mxGeometry x="50" y="290" width="60" height="20" as="geometry"/>
                </mxCell>
                <mxCell id="54" value="" style="edgeStyle=none;html=1;" parent="1" source="55" target="57" edge="1">
                    <mxGeometry relative="1" as="geometry"/>
                </mxCell>
                <mxCell id="55" value="开始&lt;br&gt;" style="strokeWidth=2;html=1;shape=mxgraph.flowchart.terminator;whiteSpace=wrap;" parent="1" vertex="1">
                    <mxGeometry x="240" y="120" width="80" height="40" as="geometry"/>
                </mxCell>
                <mxCell id="56" value="" style="edgeStyle=none;html=1;" parent="1" source="57" target="59" edge="1">
                    <mxGeometry relative="1" as="geometry"/>
                </mxCell>
                <mxCell id="57" value="t = 1" style="whiteSpace=wrap;html=1;strokeWidth=2;" parent="1" vertex="1">
                    <mxGeometry x="247.5" y="190" width="65" height="20" as="geometry"/>
                </mxCell>
                <mxCell id="58" value="" style="edgeStyle=none;html=1;" parent="1" source="59" target="69" edge="1">
                    <mxGeometry relative="1" as="geometry"/>
                </mxCell>
                <mxCell id="59" value="i = 2" style="whiteSpace=wrap;html=1;strokeWidth=2;" parent="1" vertex="1">
                    <mxGeometry x="250" y="240" width="60" height="20" as="geometry"/>
                </mxCell>
                <mxCell id="60" style="edgeStyle=none;html=1;exitX=0.5;exitY=1;exitDx=0;exitDy=0;entryX=0.5;entryY=0;entryDx=0;entryDy=0;" parent="1" source="61" target="66" edge="1">
                    <mxGeometry relative="1" as="geometry"/>
                </mxCell>
                <mxCell id="61" value="i = i + 1" style="whiteSpace=wrap;html=1;strokeWidth=2;" parent="1" vertex="1">
                    <mxGeometry x="250" y="340" width="60" height="20" as="geometry"/>
                </mxCell>
                <mxCell id="64" style="edgeStyle=none;html=1;exitX=1;exitY=0.5;exitDx=0;exitDy=0;arcSize=0;" parent="1" source="66" edge="1">
                    <mxGeometry relative="1" as="geometry">
                        <mxPoint x="280" y="270" as="targetPoint"/>
                        <Array as="points">
                            <mxPoint x="340" y="405"/>
                            <mxPoint x="340" y="270"/>
                        </Array>
                    </mxGeometry>
                </mxCell>
                <mxCell id="65" value="N" style="edgeLabel;html=1;align=center;verticalAlign=bottom;resizable=0;points=[];" parent="64" vertex="1" connectable="0">
                    <mxGeometry x="-0.8889" relative="1" as="geometry">
                        <mxPoint as="offset"/>
                    </mxGeometry>
                </mxCell>
                <mxCell id="74" style="edgeStyle=none;html=1;exitX=0.5;exitY=1;exitDx=0;exitDy=0;entryX=0.5;entryY=0;entryDx=0;entryDy=0;" parent="1" source="66" target="70" edge="1">
                    <mxGeometry relative="1" as="geometry"/>
                </mxCell>
                <mxCell id="66" value="i &amp;gt; 5" style="rhombus;whiteSpace=wrap;html=1;strokeWidth=2;" parent="1" vertex="1">
                    <mxGeometry x="250" y="390" width="60" height="30" as="geometry"/>
                </mxCell>
                <mxCell id="67" value="结束" style="strokeWidth=2;html=1;shape=mxgraph.flowchart.terminator;whiteSpace=wrap;" parent="1" vertex="1">
                    <mxGeometry x="240" y="510" width="80" height="40" as="geometry"/>
                </mxCell>
                <mxCell id="68" style="edgeStyle=none;html=1;exitX=0.5;exitY=1;exitDx=0;exitDy=0;entryX=0.5;entryY=0;entryDx=0;entryDy=0;" parent="1" source="69" target="61" edge="1">
                    <mxGeometry relative="1" as="geometry"/>
                </mxCell>
                <mxCell id="69" value="t = t * i" style="whiteSpace=wrap;html=1;strokeWidth=2;" parent="1" vertex="1">
                    <mxGeometry x="250" y="290" width="60" height="20" as="geometry"/>
                </mxCell>
                <mxCell id="71" style="edgeStyle=none;html=1;exitX=0.5;exitY=1;exitDx=0;exitDy=0;entryX=0.5;entryY=0;entryDx=0;entryDy=0;entryPerimeter=0;" parent="1" source="70" target="67" edge="1">
                    <mxGeometry relative="1" as="geometry"/>
                </mxCell>
                <mxCell id="70" value="输出t" style="shape=parallelogram;perimeter=parallelogramPerimeter;whiteSpace=wrap;html=1;fixedSize=1;size=9.999999999999943;" parent="1" vertex="1">
                    <mxGeometry x="250" y="450" width="60" height="30" as="geometry"/>
                </mxCell>
                <mxCell id="Q0s5n83HCMGvtaUuMxHI-74" value="&lt;h1&gt;例2.6&lt;/h1&gt;&lt;div&gt;求1 x 2 x 3 x 4 x 5&lt;/div&gt;" style="text;html=1;strokeColor=none;fillColor=none;spacing=5;spacingTop=-20;whiteSpace=wrap;overflow=hidden;rounded=0;" vertex="1" parent="1">
                    <mxGeometry x="40" y="40" width="190" height="80" as="geometry"/>
                </mxCell>
            </root>
        </mxGraphModel>
    </diagram>
    <diagram id="c96ZGQvuipTp7Aow28Vj" name="ps2.7">
        <mxGraphModel dx="1524" dy="1113" grid="1" gridSize="10" guides="1" tooltips="1" connect="1" arrows="1" fold="1" page="1" pageScale="1" pageWidth="827" pageHeight="1169" math="0" shadow="0">
            <root>
                <mxCell id="0"/>
                <mxCell id="1" parent="0"/>
                <mxCell id="TLU96PrhCznnFvqgntX7-3" value="" style="edgeStyle=none;html=1;" parent="1" source="TLU96PrhCznnFvqgntX7-1" target="TLU96PrhCznnFvqgntX7-2" edge="1">
                    <mxGeometry relative="1" as="geometry"/>
                </mxCell>
                <mxCell id="TLU96PrhCznnFvqgntX7-1" value="开始" style="strokeWidth=2;html=1;shape=mxgraph.flowchart.terminator;whiteSpace=wrap;" parent="1" vertex="1">
                    <mxGeometry x="120" y="360" width="80" height="40" as="geometry"/>
                </mxCell>
                <mxCell id="BHfTM7VgaXKjHDIZ3ic1-2" value="" style="edgeStyle=none;html=1;" parent="1" source="TLU96PrhCznnFvqgntX7-2" target="BHfTM7VgaXKjHDIZ3ic1-1" edge="1">
                    <mxGeometry relative="1" as="geometry"/>
                </mxCell>
                <mxCell id="TLU96PrhCznnFvqgntX7-2" value="i = 1" style="whiteSpace=wrap;html=1;strokeWidth=2;" parent="1" vertex="1">
                    <mxGeometry x="130" y="430" width="60" height="20" as="geometry"/>
                </mxCell>
                <mxCell id="BHfTM7VgaXKjHDIZ3ic1-5" style="edgeStyle=none;html=1;exitX=0;exitY=0.5;exitDx=0;exitDy=0;entryX=0.5;entryY=0;entryDx=0;entryDy=0;arcSize=0;" parent="1" source="BHfTM7VgaXKjHDIZ3ic1-1" target="BHfTM7VgaXKjHDIZ3ic1-3" edge="1">
                    <mxGeometry relative="1" as="geometry">
                        <mxPoint x="50" y="500" as="targetPoint"/>
                        <Array as="points">
                            <mxPoint x="80" y="500"/>
                        </Array>
                    </mxGeometry>
                </mxCell>
                <mxCell id="BHfTM7VgaXKjHDIZ3ic1-9" value="Y" style="edgeLabel;html=1;align=center;verticalAlign=bottom;resizable=0;points=[];" parent="BHfTM7VgaXKjHDIZ3ic1-5" vertex="1" connectable="0">
                    <mxGeometry x="-0.25" y="1" relative="1" as="geometry">
                        <mxPoint x="10" y="-1" as="offset"/>
                    </mxGeometry>
                </mxCell>
                <mxCell id="BHfTM7VgaXKjHDIZ3ic1-8" style="edgeStyle=none;html=1;exitX=1;exitY=0.5;exitDx=0;exitDy=0;entryX=1;entryY=0.5;entryDx=0;entryDy=0;arcSize=0;" parent="1" source="BHfTM7VgaXKjHDIZ3ic1-1" target="BHfTM7VgaXKjHDIZ3ic1-6" edge="1">
                    <mxGeometry relative="1" as="geometry">
                        <Array as="points">
                            <mxPoint x="240" y="500"/>
                            <mxPoint x="240" y="615"/>
                        </Array>
                    </mxGeometry>
                </mxCell>
                <mxCell id="BHfTM7VgaXKjHDIZ3ic1-10" value="N" style="edgeLabel;html=1;align=center;verticalAlign=bottom;resizable=0;points=[];" parent="BHfTM7VgaXKjHDIZ3ic1-8" vertex="1" connectable="0">
                    <mxGeometry x="-0.8783" y="-1" relative="1" as="geometry">
                        <mxPoint x="8" y="-1" as="offset"/>
                    </mxGeometry>
                </mxCell>
                <mxCell id="BHfTM7VgaXKjHDIZ3ic1-1" value="g&lt;sub&gt;i&lt;/sub&gt;&amp;gt;=80" style="rhombus;whiteSpace=wrap;html=1;strokeWidth=2;" parent="1" vertex="1">
                    <mxGeometry x="120" y="480" width="80" height="40" as="geometry"/>
                </mxCell>
                <mxCell id="BHfTM7VgaXKjHDIZ3ic1-7" value="" style="edgeStyle=none;html=1;arcSize=0;" parent="1" source="BHfTM7VgaXKjHDIZ3ic1-3" target="BHfTM7VgaXKjHDIZ3ic1-6" edge="1">
                    <mxGeometry relative="1" as="geometry">
                        <Array as="points">
                            <mxPoint x="80" y="615"/>
                        </Array>
                    </mxGeometry>
                </mxCell>
                <mxCell id="BHfTM7VgaXKjHDIZ3ic1-3" value="输出n&lt;sub&gt;i&lt;/sub&gt;、g&lt;sub&gt;i&lt;/sub&gt;" style="shape=parallelogram;perimeter=parallelogramPerimeter;whiteSpace=wrap;html=1;fixedSize=1;strokeWidth=2;size=10;" parent="1" vertex="1">
                    <mxGeometry x="40" y="540" width="80" height="30" as="geometry"/>
                </mxCell>
                <mxCell id="BHfTM7VgaXKjHDIZ3ic1-13" value="" style="edgeStyle=none;html=1;" parent="1" source="BHfTM7VgaXKjHDIZ3ic1-6" target="BHfTM7VgaXKjHDIZ3ic1-12" edge="1">
                    <mxGeometry relative="1" as="geometry"/>
                </mxCell>
                <mxCell id="BHfTM7VgaXKjHDIZ3ic1-6" value="i = i + 1" style="whiteSpace=wrap;html=1;strokeWidth=2;" parent="1" vertex="1">
                    <mxGeometry x="120" y="600" width="80" height="30" as="geometry"/>
                </mxCell>
                <mxCell id="BHfTM7VgaXKjHDIZ3ic1-14" style="edgeStyle=none;html=1;exitX=1;exitY=0.5;exitDx=0;exitDy=0;arcSize=0;" parent="1" source="BHfTM7VgaXKjHDIZ3ic1-12" edge="1">
                    <mxGeometry relative="1" as="geometry">
                        <mxPoint x="160" y="460" as="targetPoint"/>
                        <Array as="points">
                            <mxPoint x="280" y="680"/>
                            <mxPoint x="280" y="460"/>
                        </Array>
                    </mxGeometry>
                </mxCell>
                <mxCell id="BHfTM7VgaXKjHDIZ3ic1-15" value="N" style="edgeLabel;html=1;align=center;verticalAlign=bottom;resizable=0;points=[];" parent="BHfTM7VgaXKjHDIZ3ic1-14" vertex="1" connectable="0">
                    <mxGeometry x="-0.9252" y="-1" relative="1" as="geometry">
                        <mxPoint x="4" y="-1" as="offset"/>
                    </mxGeometry>
                </mxCell>
                <mxCell id="BHfTM7VgaXKjHDIZ3ic1-21" style="edgeStyle=none;html=1;exitX=0.5;exitY=1;exitDx=0;exitDy=0;entryX=0.5;entryY=0;entryDx=0;entryDy=0;entryPerimeter=0;" parent="1" source="BHfTM7VgaXKjHDIZ3ic1-12" target="BHfTM7VgaXKjHDIZ3ic1-20" edge="1">
                    <mxGeometry relative="1" as="geometry"/>
                </mxCell>
                <mxCell id="BHfTM7VgaXKjHDIZ3ic1-23" value="Y" style="edgeLabel;html=1;align=left;verticalAlign=middle;resizable=0;points=[];" parent="BHfTM7VgaXKjHDIZ3ic1-21" vertex="1" connectable="0">
                    <mxGeometry x="-0.4317" relative="1" as="geometry">
                        <mxPoint y="1" as="offset"/>
                    </mxGeometry>
                </mxCell>
                <mxCell id="BHfTM7VgaXKjHDIZ3ic1-12" value="i &amp;gt; 50" style="rhombus;whiteSpace=wrap;html=1;strokeWidth=2;" parent="1" vertex="1">
                    <mxGeometry x="120" y="660" width="80" height="40" as="geometry"/>
                </mxCell>
                <mxCell id="BHfTM7VgaXKjHDIZ3ic1-20" value="结束" style="strokeWidth=2;html=1;shape=mxgraph.flowchart.terminator;whiteSpace=wrap;" parent="1" vertex="1">
                    <mxGeometry x="120" y="730" width="80" height="40" as="geometry"/>
                </mxCell>
                <mxCell id="BHfTM7VgaXKjHDIZ3ic1-65" style="edgeStyle=none;html=1;exitX=0.5;exitY=1;exitDx=0;exitDy=0;exitPerimeter=0;entryX=0.5;entryY=0;entryDx=0;entryDy=0;" parent="1" source="BHfTM7VgaXKjHDIZ3ic1-44" target="BHfTM7VgaXKjHDIZ3ic1-64" edge="1">
                    <mxGeometry relative="1" as="geometry"/>
                </mxCell>
                <mxCell id="BHfTM7VgaXKjHDIZ3ic1-44" value="开始" style="strokeWidth=2;html=1;shape=mxgraph.flowchart.terminator;whiteSpace=wrap;" parent="1" vertex="1">
                    <mxGeometry x="481" y="120" width="80" height="40" as="geometry"/>
                </mxCell>
                <mxCell id="BHfTM7VgaXKjHDIZ3ic1-45" value="" style="edgeStyle=none;html=1;" parent="1" source="BHfTM7VgaXKjHDIZ3ic1-46" target="BHfTM7VgaXKjHDIZ3ic1-51" edge="1">
                    <mxGeometry relative="1" as="geometry"/>
                </mxCell>
                <mxCell id="BHfTM7VgaXKjHDIZ3ic1-46" value="i = 1" style="whiteSpace=wrap;html=1;strokeWidth=2;" parent="1" vertex="1">
                    <mxGeometry x="491" y="430" width="60" height="20" as="geometry"/>
                </mxCell>
                <mxCell id="BHfTM7VgaXKjHDIZ3ic1-47" style="edgeStyle=none;html=1;exitX=0;exitY=0.5;exitDx=0;exitDy=0;entryX=0.5;entryY=0;entryDx=0;entryDy=0;arcSize=0;" parent="1" source="BHfTM7VgaXKjHDIZ3ic1-51" target="BHfTM7VgaXKjHDIZ3ic1-53" edge="1">
                    <mxGeometry relative="1" as="geometry">
                        <mxPoint x="410" y="500" as="targetPoint"/>
                        <Array as="points">
                            <mxPoint x="440" y="500"/>
                        </Array>
                    </mxGeometry>
                </mxCell>
                <mxCell id="BHfTM7VgaXKjHDIZ3ic1-48" value="Y" style="edgeLabel;html=1;align=center;verticalAlign=bottom;resizable=0;points=[];" parent="BHfTM7VgaXKjHDIZ3ic1-47" vertex="1" connectable="0">
                    <mxGeometry x="-0.25" y="1" relative="1" as="geometry">
                        <mxPoint x="10" y="-1" as="offset"/>
                    </mxGeometry>
                </mxCell>
                <mxCell id="BHfTM7VgaXKjHDIZ3ic1-49" style="edgeStyle=none;html=1;exitX=1;exitY=0.5;exitDx=0;exitDy=0;entryX=1;entryY=0.5;entryDx=0;entryDy=0;arcSize=0;" parent="1" source="BHfTM7VgaXKjHDIZ3ic1-51" target="BHfTM7VgaXKjHDIZ3ic1-55" edge="1">
                    <mxGeometry relative="1" as="geometry">
                        <Array as="points">
                            <mxPoint x="600" y="500"/>
                            <mxPoint x="600" y="615"/>
                        </Array>
                    </mxGeometry>
                </mxCell>
                <mxCell id="BHfTM7VgaXKjHDIZ3ic1-50" value="N" style="edgeLabel;html=1;align=center;verticalAlign=bottom;resizable=0;points=[];" parent="BHfTM7VgaXKjHDIZ3ic1-49" vertex="1" connectable="0">
                    <mxGeometry x="-0.8783" y="-1" relative="1" as="geometry">
                        <mxPoint x="8" y="-1" as="offset"/>
                    </mxGeometry>
                </mxCell>
                <mxCell id="BHfTM7VgaXKjHDIZ3ic1-51" value="g&lt;sub&gt;i&lt;/sub&gt;&amp;gt;=80" style="rhombus;whiteSpace=wrap;html=1;strokeWidth=2;" parent="1" vertex="1">
                    <mxGeometry x="481" y="480" width="80" height="40" as="geometry"/>
                </mxCell>
                <mxCell id="BHfTM7VgaXKjHDIZ3ic1-52" value="" style="edgeStyle=none;html=1;arcSize=0;" parent="1" source="BHfTM7VgaXKjHDIZ3ic1-53" target="BHfTM7VgaXKjHDIZ3ic1-55" edge="1">
                    <mxGeometry relative="1" as="geometry">
                        <Array as="points">
                            <mxPoint x="440" y="615"/>
                        </Array>
                    </mxGeometry>
                </mxCell>
                <mxCell id="BHfTM7VgaXKjHDIZ3ic1-53" value="输出n&lt;sub&gt;i&lt;/sub&gt;、g&lt;sub&gt;i&lt;/sub&gt;" style="shape=parallelogram;perimeter=parallelogramPerimeter;whiteSpace=wrap;html=1;fixedSize=1;strokeWidth=2;size=10;" parent="1" vertex="1">
                    <mxGeometry x="400" y="540" width="80" height="30" as="geometry"/>
                </mxCell>
                <mxCell id="BHfTM7VgaXKjHDIZ3ic1-54" value="" style="edgeStyle=none;html=1;" parent="1" source="BHfTM7VgaXKjHDIZ3ic1-55" target="BHfTM7VgaXKjHDIZ3ic1-60" edge="1">
                    <mxGeometry relative="1" as="geometry"/>
                </mxCell>
                <mxCell id="BHfTM7VgaXKjHDIZ3ic1-55" value="i = i + 1" style="whiteSpace=wrap;html=1;strokeWidth=2;" parent="1" vertex="1">
                    <mxGeometry x="481" y="600" width="80" height="30" as="geometry"/>
                </mxCell>
                <mxCell id="BHfTM7VgaXKjHDIZ3ic1-56" style="edgeStyle=none;html=1;exitX=1;exitY=0.5;exitDx=0;exitDy=0;arcSize=0;" parent="1" source="BHfTM7VgaXKjHDIZ3ic1-60" edge="1">
                    <mxGeometry relative="1" as="geometry">
                        <mxPoint x="520" y="460" as="targetPoint"/>
                        <Array as="points">
                            <mxPoint x="640" y="680"/>
                            <mxPoint x="640" y="460"/>
                        </Array>
                    </mxGeometry>
                </mxCell>
                <mxCell id="BHfTM7VgaXKjHDIZ3ic1-57" value="N" style="edgeLabel;html=1;align=center;verticalAlign=bottom;resizable=0;points=[];" parent="BHfTM7VgaXKjHDIZ3ic1-56" vertex="1" connectable="0">
                    <mxGeometry x="-0.9252" y="-1" relative="1" as="geometry">
                        <mxPoint x="4" y="-1" as="offset"/>
                    </mxGeometry>
                </mxCell>
                <mxCell id="BHfTM7VgaXKjHDIZ3ic1-58" style="edgeStyle=none;html=1;exitX=0.5;exitY=1;exitDx=0;exitDy=0;entryX=0.5;entryY=0;entryDx=0;entryDy=0;entryPerimeter=0;" parent="1" source="BHfTM7VgaXKjHDIZ3ic1-60" target="BHfTM7VgaXKjHDIZ3ic1-61" edge="1">
                    <mxGeometry relative="1" as="geometry"/>
                </mxCell>
                <mxCell id="BHfTM7VgaXKjHDIZ3ic1-59" value="Y" style="edgeLabel;html=1;align=left;verticalAlign=middle;resizable=0;points=[];" parent="BHfTM7VgaXKjHDIZ3ic1-58" vertex="1" connectable="0">
                    <mxGeometry x="-0.4317" relative="1" as="geometry">
                        <mxPoint y="1" as="offset"/>
                    </mxGeometry>
                </mxCell>
                <mxCell id="BHfTM7VgaXKjHDIZ3ic1-60" value="i &amp;gt; 50" style="rhombus;whiteSpace=wrap;html=1;strokeWidth=2;" parent="1" vertex="1">
                    <mxGeometry x="481" y="660" width="80" height="40" as="geometry"/>
                </mxCell>
                <mxCell id="BHfTM7VgaXKjHDIZ3ic1-61" value="结束" style="strokeWidth=2;html=1;shape=mxgraph.flowchart.terminator;whiteSpace=wrap;" parent="1" vertex="1">
                    <mxGeometry x="481" y="730" width="80" height="40" as="geometry"/>
                </mxCell>
                <mxCell id="BHfTM7VgaXKjHDIZ3ic1-67" value="" style="edgeStyle=none;html=1;" parent="1" source="BHfTM7VgaXKjHDIZ3ic1-64" target="BHfTM7VgaXKjHDIZ3ic1-66" edge="1">
                    <mxGeometry relative="1" as="geometry"/>
                </mxCell>
                <mxCell id="BHfTM7VgaXKjHDIZ3ic1-64" value="i = 1" style="whiteSpace=wrap;html=1;strokeWidth=2;" parent="1" vertex="1">
                    <mxGeometry x="491" y="190" width="60" height="20" as="geometry"/>
                </mxCell>
                <mxCell id="BHfTM7VgaXKjHDIZ3ic1-71" style="edgeStyle=none;html=1;exitX=0.5;exitY=1;exitDx=0;exitDy=0;" parent="1" source="BHfTM7VgaXKjHDIZ3ic1-66" target="BHfTM7VgaXKjHDIZ3ic1-69" edge="1">
                    <mxGeometry relative="1" as="geometry"/>
                </mxCell>
                <mxCell id="BHfTM7VgaXKjHDIZ3ic1-66" value="输入n&lt;sub&gt;i&lt;/sub&gt;、g&lt;sub&gt;i&lt;/sub&gt;" style="shape=parallelogram;perimeter=parallelogramPerimeter;whiteSpace=wrap;html=1;fixedSize=1;strokeWidth=2;size=9;" parent="1" vertex="1">
                    <mxGeometry x="480" y="240" width="80" height="30" as="geometry"/>
                </mxCell>
                <mxCell id="BHfTM7VgaXKjHDIZ3ic1-74" style="edgeStyle=none;html=1;exitX=0.5;exitY=1;exitDx=0;exitDy=0;" parent="1" source="BHfTM7VgaXKjHDIZ3ic1-69" target="BHfTM7VgaXKjHDIZ3ic1-70" edge="1">
                    <mxGeometry relative="1" as="geometry"/>
                </mxCell>
                <mxCell id="BHfTM7VgaXKjHDIZ3ic1-69" value="i = i + 1" style="whiteSpace=wrap;html=1;strokeWidth=2;" parent="1" vertex="1">
                    <mxGeometry x="481" y="300" width="80" height="30" as="geometry"/>
                </mxCell>
                <mxCell id="BHfTM7VgaXKjHDIZ3ic1-73" style="edgeStyle=none;html=1;exitX=0.5;exitY=1;exitDx=0;exitDy=0;entryX=0.5;entryY=0;entryDx=0;entryDy=0;" parent="1" source="BHfTM7VgaXKjHDIZ3ic1-70" target="BHfTM7VgaXKjHDIZ3ic1-46" edge="1">
                    <mxGeometry relative="1" as="geometry"/>
                </mxCell>
                <mxCell id="BHfTM7VgaXKjHDIZ3ic1-76" value="Y" style="edgeLabel;html=1;align=left;verticalAlign=middle;resizable=0;points=[];" parent="BHfTM7VgaXKjHDIZ3ic1-73" vertex="1" connectable="0">
                    <mxGeometry x="-0.65" y="1" relative="1" as="geometry">
                        <mxPoint x="-1" y="5" as="offset"/>
                    </mxGeometry>
                </mxCell>
                <mxCell id="BHfTM7VgaXKjHDIZ3ic1-75" style="edgeStyle=none;html=1;exitX=1;exitY=0.5;exitDx=0;exitDy=0;arcSize=0;" parent="1" source="BHfTM7VgaXKjHDIZ3ic1-70" edge="1">
                    <mxGeometry relative="1" as="geometry">
                        <mxPoint x="521" y="220" as="targetPoint"/>
                        <Array as="points">
                            <mxPoint x="601" y="380"/>
                            <mxPoint x="601" y="220"/>
                        </Array>
                    </mxGeometry>
                </mxCell>
                <mxCell id="BHfTM7VgaXKjHDIZ3ic1-77" value="N" style="edgeLabel;html=1;align=center;verticalAlign=bottom;resizable=0;points=[];" parent="BHfTM7VgaXKjHDIZ3ic1-75" vertex="1" connectable="0">
                    <mxGeometry x="-0.9239" y="1" relative="1" as="geometry">
                        <mxPoint x="6" y="1" as="offset"/>
                    </mxGeometry>
                </mxCell>
                <mxCell id="BHfTM7VgaXKjHDIZ3ic1-70" value="i &amp;gt; 50" style="rhombus;whiteSpace=wrap;html=1;strokeWidth=2;" parent="1" vertex="1">
                    <mxGeometry x="481" y="360" width="80" height="40" as="geometry"/>
                </mxCell>
                <mxCell id="S2JmozIBOBfFG8eeqcO6-1" value="&lt;h1&gt;例2.7&lt;/h1&gt;&lt;div&gt;有50个学生,要求输出成绩在80分以上的学生的学号和成绩&lt;/div&gt;" style="text;html=1;strokeColor=none;fillColor=none;spacing=5;spacingTop=-20;whiteSpace=wrap;overflow=hidden;rounded=0;" vertex="1" parent="1">
                    <mxGeometry x="40" y="40" width="330" height="80" as="geometry"/>
                </mxCell>
            </root>
        </mxGraphModel>
    </diagram>
    <diagram id="EiTghTYUbIchBT0NDyLl" name="ps2.8">
        <mxGraphModel dx="1642" dy="1198" grid="1" gridSize="10" guides="1" tooltips="1" connect="1" arrows="1" fold="1" page="1" pageScale="1" pageWidth="827" pageHeight="1169" math="0" shadow="0">
            <root>
                <mxCell id="0"/>
                <mxCell id="1" parent="0"/>
                <mxCell id="RPEqakfpl8pM1XGloQXY-2" value="" style="edgeStyle=none;html=1;" parent="1" source="feAYuNqM5jmFZqkyQAEn-1" target="RPEqakfpl8pM1XGloQXY-1" edge="1">
                    <mxGeometry relative="1" as="geometry"/>
                </mxCell>
                <mxCell id="feAYuNqM5jmFZqkyQAEn-1" value="开始" style="strokeWidth=2;html=1;shape=mxgraph.flowchart.terminator;whiteSpace=wrap;" parent="1" vertex="1">
                    <mxGeometry x="120" y="120" width="80" height="40" as="geometry"/>
                </mxCell>
                <mxCell id="RPEqakfpl8pM1XGloQXY-4" value="" style="edgeStyle=none;html=1;" parent="1" source="RPEqakfpl8pM1XGloQXY-1" target="RPEqakfpl8pM1XGloQXY-3" edge="1">
                    <mxGeometry relative="1" as="geometry"/>
                </mxCell>
                <mxCell id="RPEqakfpl8pM1XGloQXY-1" value="year&amp;nbsp; = 2000" style="whiteSpace=wrap;html=1;strokeWidth=2;" parent="1" vertex="1">
                    <mxGeometry x="120" y="190" width="80" height="30" as="geometry"/>
                </mxCell>
                <mxCell id="RPEqakfpl8pM1XGloQXY-6" style="edgeStyle=none;html=1;exitX=0.5;exitY=1;exitDx=0;exitDy=0;entryX=0.5;entryY=0;entryDx=0;entryDy=0;" parent="1" source="RPEqakfpl8pM1XGloQXY-3" target="RPEqakfpl8pM1XGloQXY-5" edge="1">
                    <mxGeometry relative="1" as="geometry"/>
                </mxCell>
                <mxCell id="RPEqakfpl8pM1XGloQXY-12" value="N" style="edgeLabel;html=1;align=left;verticalAlign=middle;resizable=0;points=[];" parent="RPEqakfpl8pM1XGloQXY-6" vertex="1" connectable="0">
                    <mxGeometry x="-0.5981" y="1" relative="1" as="geometry">
                        <mxPoint x="-1" y="4" as="offset"/>
                    </mxGeometry>
                </mxCell>
                <mxCell id="RPEqakfpl8pM1XGloQXY-24" style="edgeStyle=none;html=1;exitX=1;exitY=0.5;exitDx=0;exitDy=0;entryX=0.5;entryY=0;entryDx=0;entryDy=0;arcSize=0;" parent="1" source="RPEqakfpl8pM1XGloQXY-3" target="RPEqakfpl8pM1XGloQXY-23" edge="1">
                    <mxGeometry relative="1" as="geometry">
                        <Array as="points">
                            <mxPoint x="640" y="270"/>
                        </Array>
                        <mxPoint x="640" y="420" as="targetPoint"/>
                    </mxGeometry>
                </mxCell>
                <mxCell id="RPEqakfpl8pM1XGloQXY-27" value="Y" style="edgeLabel;html=1;align=center;verticalAlign=bottom;resizable=0;points=[];" parent="RPEqakfpl8pM1XGloQXY-24" vertex="1" connectable="0">
                    <mxGeometry x="-0.9358" y="-1" relative="1" as="geometry">
                        <mxPoint x="2" y="-1" as="offset"/>
                    </mxGeometry>
                </mxCell>
                <mxCell id="RPEqakfpl8pM1XGloQXY-3" value="year不能被&lt;br&gt;4整除" style="rhombus;whiteSpace=wrap;html=1;strokeWidth=2;" parent="1" vertex="1">
                    <mxGeometry x="80" y="250" width="160" height="40" as="geometry"/>
                </mxCell>
                <mxCell id="RPEqakfpl8pM1XGloQXY-8" value="" style="edgeStyle=none;html=1;" parent="1" source="RPEqakfpl8pM1XGloQXY-5" target="RPEqakfpl8pM1XGloQXY-7" edge="1">
                    <mxGeometry relative="1" as="geometry"/>
                </mxCell>
                <mxCell id="RPEqakfpl8pM1XGloQXY-13" value="Y" style="edgeLabel;html=1;align=left;verticalAlign=middle;resizable=0;points=[];" parent="RPEqakfpl8pM1XGloQXY-8" vertex="1" connectable="0">
                    <mxGeometry x="-0.4644" relative="1" as="geometry">
                        <mxPoint y="2" as="offset"/>
                    </mxGeometry>
                </mxCell>
                <mxCell id="RPEqakfpl8pM1XGloQXY-11" style="edgeStyle=none;html=1;exitX=1;exitY=0.5;exitDx=0;exitDy=0;arcSize=20;bendable=1;" parent="1" source="RPEqakfpl8pM1XGloQXY-5" target="RPEqakfpl8pM1XGloQXY-10" edge="1">
                    <mxGeometry relative="1" as="geometry">
                        <Array as="points">
                            <mxPoint x="400" y="340"/>
                        </Array>
                    </mxGeometry>
                </mxCell>
                <mxCell id="RPEqakfpl8pM1XGloQXY-14" value="N" style="edgeLabel;html=1;align=center;verticalAlign=bottom;resizable=0;points=[];" parent="RPEqakfpl8pM1XGloQXY-11" vertex="1" connectable="0">
                    <mxGeometry x="-0.4021" y="2" relative="1" as="geometry">
                        <mxPoint x="-2" y="2" as="offset"/>
                    </mxGeometry>
                </mxCell>
                <mxCell id="RPEqakfpl8pM1XGloQXY-5" value="year不能被&lt;br&gt;100整除" style="rhombus;whiteSpace=wrap;html=1;strokeWidth=2;" parent="1" vertex="1">
                    <mxGeometry x="80" y="320" width="160" height="40" as="geometry"/>
                </mxCell>
                <mxCell id="RPEqakfpl8pM1XGloQXY-35" style="edgeStyle=none;html=1;exitX=0.5;exitY=1;exitDx=0;exitDy=0;" parent="1" source="RPEqakfpl8pM1XGloQXY-7" target="RPEqakfpl8pM1XGloQXY-28" edge="1">
                    <mxGeometry relative="1" as="geometry">
                        <mxPoint x="240" y="520" as="targetPoint"/>
                        <Array as="points">
                            <mxPoint x="160" y="520"/>
                        </Array>
                    </mxGeometry>
                </mxCell>
                <mxCell id="RPEqakfpl8pM1XGloQXY-7" value="输出&lt;br&gt;year是闰年" style="shape=parallelogram;perimeter=parallelogramPerimeter;whiteSpace=wrap;html=1;fixedSize=1;strokeWidth=2;size=10;" parent="1" vertex="1">
                    <mxGeometry x="110" y="390" width="100" height="40" as="geometry"/>
                </mxCell>
                <mxCell id="RPEqakfpl8pM1XGloQXY-19" style="edgeStyle=none;html=1;exitX=0;exitY=0.5;exitDx=0;exitDy=0;entryX=0.5;entryY=0;entryDx=0;entryDy=0;arcSize=0;" parent="1" source="RPEqakfpl8pM1XGloQXY-10" target="RPEqakfpl8pM1XGloQXY-17" edge="1">
                    <mxGeometry relative="1" as="geometry">
                        <Array as="points">
                            <mxPoint x="290" y="390"/>
                        </Array>
                    </mxGeometry>
                </mxCell>
                <mxCell id="RPEqakfpl8pM1XGloQXY-20" value="N" style="edgeLabel;html=1;align=center;verticalAlign=bottom;resizable=0;points=[];" parent="RPEqakfpl8pM1XGloQXY-19" vertex="1" connectable="0">
                    <mxGeometry x="-0.3067" relative="1" as="geometry">
                        <mxPoint x="11" as="offset"/>
                    </mxGeometry>
                </mxCell>
                <mxCell id="RPEqakfpl8pM1XGloQXY-21" style="edgeStyle=none;html=1;exitX=1;exitY=0.5;exitDx=0;exitDy=0;entryX=0.5;entryY=0;entryDx=0;entryDy=0;arcSize=0;" parent="1" source="RPEqakfpl8pM1XGloQXY-10" target="RPEqakfpl8pM1XGloQXY-18" edge="1">
                    <mxGeometry relative="1" as="geometry">
                        <Array as="points">
                            <mxPoint x="510" y="390"/>
                        </Array>
                    </mxGeometry>
                </mxCell>
                <mxCell id="RPEqakfpl8pM1XGloQXY-22" value="Y" style="edgeLabel;html=1;align=center;verticalAlign=bottom;resizable=0;points=[];" parent="RPEqakfpl8pM1XGloQXY-21" vertex="1" connectable="0">
                    <mxGeometry x="-0.6629" relative="1" as="geometry">
                        <mxPoint x="-2" as="offset"/>
                    </mxGeometry>
                </mxCell>
                <mxCell id="RPEqakfpl8pM1XGloQXY-10" value="year不能被&lt;br&gt;400整除" style="rhombus;whiteSpace=wrap;html=1;strokeWidth=2;" parent="1" vertex="1">
                    <mxGeometry x="320" y="370" width="160" height="40" as="geometry"/>
                </mxCell>
                <mxCell id="RPEqakfpl8pM1XGloQXY-32" style="edgeStyle=none;html=1;exitX=0.5;exitY=1;exitDx=0;exitDy=0;arcSize=0;" parent="1" source="RPEqakfpl8pM1XGloQXY-17" edge="1">
                    <mxGeometry relative="1" as="geometry">
                        <mxPoint x="400" y="490" as="targetPoint"/>
                        <Array as="points">
                            <mxPoint x="290" y="490"/>
                        </Array>
                    </mxGeometry>
                </mxCell>
                <mxCell id="RPEqakfpl8pM1XGloQXY-17" value="输出&lt;br&gt;year是闰年" style="shape=parallelogram;perimeter=parallelogramPerimeter;whiteSpace=wrap;html=1;fixedSize=1;strokeWidth=2;size=10;" parent="1" vertex="1">
                    <mxGeometry x="240" y="420" width="100" height="40" as="geometry"/>
                </mxCell>
                <mxCell id="RPEqakfpl8pM1XGloQXY-33" style="edgeStyle=none;html=1;exitX=0.5;exitY=1;exitDx=0;exitDy=0;arcSize=0;" parent="1" source="RPEqakfpl8pM1XGloQXY-18" edge="1">
                    <mxGeometry relative="1" as="geometry">
                        <mxPoint x="400" y="490" as="targetPoint"/>
                        <Array as="points">
                            <mxPoint x="510" y="490"/>
                        </Array>
                    </mxGeometry>
                </mxCell>
                <mxCell id="RPEqakfpl8pM1XGloQXY-18" value="输出&lt;br&gt;year不是闰年" style="shape=parallelogram;perimeter=parallelogramPerimeter;whiteSpace=wrap;html=1;fixedSize=1;strokeWidth=2;size=10;" parent="1" vertex="1">
                    <mxGeometry x="460" y="420" width="100" height="40" as="geometry"/>
                </mxCell>
                <mxCell id="RPEqakfpl8pM1XGloQXY-34" style="edgeStyle=none;html=1;exitX=0.5;exitY=0.957;exitDx=0;exitDy=0;arcSize=0;exitPerimeter=0;" parent="1" source="RPEqakfpl8pM1XGloQXY-23" edge="1">
                    <mxGeometry relative="1" as="geometry">
                        <mxPoint x="160" y="530" as="targetPoint"/>
                        <Array as="points">
                            <mxPoint x="640" y="530"/>
                        </Array>
                        <mxPoint x="640" y="460" as="sourcePoint"/>
                    </mxGeometry>
                </mxCell>
                <mxCell id="RPEqakfpl8pM1XGloQXY-23" value="输出&lt;br&gt;year不是闰年" style="shape=parallelogram;perimeter=parallelogramPerimeter;whiteSpace=wrap;html=1;fixedSize=1;strokeWidth=2;size=10;" parent="1" vertex="1">
                    <mxGeometry x="590" y="420" width="100" height="40" as="geometry"/>
                </mxCell>
                <mxCell id="RPEqakfpl8pM1XGloQXY-38" style="edgeStyle=none;html=1;exitX=0.5;exitY=1;exitDx=0;exitDy=0;entryX=0.501;entryY=0.064;entryDx=0;entryDy=0;entryPerimeter=0;" parent="1" source="RPEqakfpl8pM1XGloQXY-28" target="RPEqakfpl8pM1XGloQXY-37" edge="1">
                    <mxGeometry relative="1" as="geometry"/>
                </mxCell>
                <mxCell id="RPEqakfpl8pM1XGloQXY-28" value="year&amp;nbsp; = year + 1" style="whiteSpace=wrap;html=1;strokeWidth=2;" parent="1" vertex="1">
                    <mxGeometry x="110" y="550" width="100" height="30" as="geometry"/>
                </mxCell>
                <mxCell id="RPEqakfpl8pM1XGloQXY-31" value="" style="endArrow=classic;html=1;arcSize=0;" parent="1" edge="1">
                    <mxGeometry width="50" height="50" relative="1" as="geometry">
                        <mxPoint x="400" y="490" as="sourcePoint"/>
                        <mxPoint x="160" y="520" as="targetPoint"/>
                        <Array as="points">
                            <mxPoint x="400" y="520"/>
                        </Array>
                    </mxGeometry>
                </mxCell>
                <mxCell id="RPEqakfpl8pM1XGloQXY-39" style="edgeStyle=none;html=1;exitX=0;exitY=0.5;exitDx=0;exitDy=0;arcSize=0;" parent="1" source="RPEqakfpl8pM1XGloQXY-37" edge="1">
                    <mxGeometry relative="1" as="geometry">
                        <mxPoint x="160" y="230" as="targetPoint"/>
                        <Array as="points">
                            <mxPoint x="40" y="630"/>
                            <mxPoint x="40" y="230"/>
                        </Array>
                    </mxGeometry>
                </mxCell>
                <mxCell id="RPEqakfpl8pM1XGloQXY-40" value="N" style="edgeLabel;html=1;align=center;verticalAlign=bottom;resizable=0;points=[];" parent="RPEqakfpl8pM1XGloQXY-39" vertex="1" connectable="0">
                    <mxGeometry x="-0.9261" y="4" relative="1" as="geometry">
                        <mxPoint x="1" y="-4" as="offset"/>
                    </mxGeometry>
                </mxCell>
                <mxCell id="RPEqakfpl8pM1XGloQXY-43" style="edgeStyle=none;html=1;exitX=0.5;exitY=1;exitDx=0;exitDy=0;entryX=0.5;entryY=0;entryDx=0;entryDy=0;entryPerimeter=0;" parent="1" source="RPEqakfpl8pM1XGloQXY-37" target="RPEqakfpl8pM1XGloQXY-42" edge="1">
                    <mxGeometry relative="1" as="geometry"/>
                </mxCell>
                <mxCell id="RPEqakfpl8pM1XGloQXY-57" value="Y" style="edgeLabel;html=1;align=right;verticalAlign=middle;resizable=0;points=[];" parent="RPEqakfpl8pM1XGloQXY-43" vertex="1" connectable="0">
                    <mxGeometry x="-0.4744" y="1" relative="1" as="geometry">
                        <mxPoint x="-1" y="2" as="offset"/>
                    </mxGeometry>
                </mxCell>
                <mxCell id="RPEqakfpl8pM1XGloQXY-37" value="year&amp;gt;2500" style="rhombus;whiteSpace=wrap;html=1;strokeWidth=2;" parent="1" vertex="1">
                    <mxGeometry x="80" y="610" width="160" height="40" as="geometry"/>
                </mxCell>
                <mxCell id="RPEqakfpl8pM1XGloQXY-42" value="结束" style="strokeWidth=2;html=1;shape=mxgraph.flowchart.terminator;whiteSpace=wrap;" parent="1" vertex="1">
                    <mxGeometry x="120" y="680" width="80" height="40" as="geometry"/>
                </mxCell>
                <mxCell id="HiEQDNrZ72BXNdbKoF4N-1" value="&lt;h1&gt;例2.8&lt;/h1&gt;&lt;div&gt;判断2000-2500年中的每一年是否为闰年,将结果输出&lt;/div&gt;" style="text;html=1;strokeColor=none;fillColor=none;spacing=5;spacingTop=-20;whiteSpace=wrap;overflow=hidden;rounded=0;" vertex="1" parent="1">
                    <mxGeometry x="40" y="40" width="300" height="80" as="geometry"/>
                </mxCell>
            </root>
        </mxGraphModel>
    </diagram>
    <diagram id="IXVa3K2ahxjzmzi_c9mq" name="p2.9">
        <mxGraphModel dx="1067" dy="779" grid="1" gridSize="10" guides="1" tooltips="1" connect="1" arrows="1" fold="1" page="1" pageScale="1" pageWidth="827" pageHeight="1169" math="0" shadow="0">
            <root>
                <mxCell id="0"/>
                <mxCell id="1" parent="0"/>
                <mxCell id="M5Or0eh-THsgW0GvTMT4-9" value="" style="edgeStyle=none;shape=connector;rounded=1;html=1;labelBackgroundColor=default;strokeColor=default;fontFamily=Helvetica;fontSize=11;fontColor=default;endArrow=classic;" parent="1" source="M5Or0eh-THsgW0GvTMT4-1" target="M5Or0eh-THsgW0GvTMT4-8" edge="1">
                    <mxGeometry relative="1" as="geometry"/>
                </mxCell>
                <mxCell id="M5Or0eh-THsgW0GvTMT4-1" value="开始" style="strokeWidth=2;html=1;shape=mxgraph.flowchart.terminator;whiteSpace=wrap;fontFamily=Helvetica;fontSize=11;fontColor=default;" parent="1" vertex="1">
                    <mxGeometry x="90" y="120" width="80" height="40" as="geometry"/>
                </mxCell>
                <mxCell id="M5Or0eh-THsgW0GvTMT4-3" value="结束" style="strokeWidth=2;html=1;shape=mxgraph.flowchart.terminator;whiteSpace=wrap;fontFamily=Helvetica;fontSize=11;fontColor=default;" parent="1" vertex="1">
                    <mxGeometry x="90" y="670" width="80" height="40" as="geometry"/>
                </mxCell>
                <mxCell id="M5Or0eh-THsgW0GvTMT4-12" style="edgeStyle=none;shape=connector;rounded=1;html=1;exitX=0.5;exitY=1;exitDx=0;exitDy=0;entryX=0.5;entryY=0;entryDx=0;entryDy=0;labelBackgroundColor=default;strokeColor=default;fontFamily=Helvetica;fontSize=11;fontColor=default;endArrow=classic;" parent="1" source="M5Or0eh-THsgW0GvTMT4-8" target="M5Or0eh-THsgW0GvTMT4-10" edge="1">
                    <mxGeometry relative="1" as="geometry"/>
                </mxCell>
                <mxCell id="M5Or0eh-THsgW0GvTMT4-8" value="sum = 1" style="whiteSpace=wrap;html=1;fontSize=11;strokeWidth=2;" parent="1" vertex="1">
                    <mxGeometry x="70" y="190" width="120" height="20" as="geometry"/>
                </mxCell>
                <mxCell id="M5Or0eh-THsgW0GvTMT4-13" style="edgeStyle=none;shape=connector;rounded=1;html=1;exitX=0.5;exitY=1;exitDx=0;exitDy=0;entryX=0.5;entryY=0;entryDx=0;entryDy=0;labelBackgroundColor=default;strokeColor=default;fontFamily=Helvetica;fontSize=11;fontColor=default;endArrow=classic;" parent="1" source="M5Or0eh-THsgW0GvTMT4-10" target="M5Or0eh-THsgW0GvTMT4-11" edge="1">
                    <mxGeometry relative="1" as="geometry"/>
                </mxCell>
                <mxCell id="M5Or0eh-THsgW0GvTMT4-10" value="deno = 2" style="whiteSpace=wrap;html=1;fontSize=11;strokeWidth=2;" parent="1" vertex="1">
                    <mxGeometry x="70" y="240" width="120" height="20" as="geometry"/>
                </mxCell>
                <mxCell id="M5Or0eh-THsgW0GvTMT4-18" style="edgeStyle=none;shape=connector;rounded=1;html=1;exitX=0.5;exitY=1;exitDx=0;exitDy=0;entryX=0.5;entryY=0;entryDx=0;entryDy=0;labelBackgroundColor=default;strokeColor=default;fontFamily=Helvetica;fontSize=11;fontColor=default;endArrow=classic;" parent="1" source="M5Or0eh-THsgW0GvTMT4-11" target="M5Or0eh-THsgW0GvTMT4-14" edge="1">
                    <mxGeometry relative="1" as="geometry"/>
                </mxCell>
                <mxCell id="M5Or0eh-THsgW0GvTMT4-11" value="sign = 1" style="whiteSpace=wrap;html=1;fontSize=11;strokeWidth=2;" parent="1" vertex="1">
                    <mxGeometry x="70" y="290" width="120" height="20" as="geometry"/>
                </mxCell>
                <mxCell id="M5Or0eh-THsgW0GvTMT4-19" style="edgeStyle=none;shape=connector;rounded=1;html=1;exitX=0.5;exitY=1;exitDx=0;exitDy=0;entryX=0.5;entryY=0;entryDx=0;entryDy=0;labelBackgroundColor=default;strokeColor=default;fontFamily=Helvetica;fontSize=11;fontColor=default;endArrow=classic;" parent="1" source="M5Or0eh-THsgW0GvTMT4-14" target="M5Or0eh-THsgW0GvTMT4-15" edge="1">
                    <mxGeometry relative="1" as="geometry"/>
                </mxCell>
                <mxCell id="M5Or0eh-THsgW0GvTMT4-14" value="sign = (-1) * sign" style="whiteSpace=wrap;html=1;fontSize=11;strokeWidth=2;" parent="1" vertex="1">
                    <mxGeometry x="70" y="340" width="120" height="20" as="geometry"/>
                </mxCell>
                <mxCell id="M5Or0eh-THsgW0GvTMT4-21" style="edgeStyle=none;shape=connector;rounded=1;html=1;exitX=0.5;exitY=1;exitDx=0;exitDy=0;entryX=0.5;entryY=0;entryDx=0;entryDy=0;labelBackgroundColor=default;strokeColor=default;fontFamily=Helvetica;fontSize=11;fontColor=default;endArrow=classic;" parent="1" source="M5Or0eh-THsgW0GvTMT4-15" target="M5Or0eh-THsgW0GvTMT4-16" edge="1">
                    <mxGeometry relative="1" as="geometry"/>
                </mxCell>
                <mxCell id="M5Or0eh-THsgW0GvTMT4-15" value="term = sign * (1 / deno)" style="whiteSpace=wrap;html=1;fontSize=11;strokeWidth=2;" parent="1" vertex="1">
                    <mxGeometry x="70" y="390" width="120" height="20" as="geometry"/>
                </mxCell>
                <mxCell id="M5Or0eh-THsgW0GvTMT4-22" style="edgeStyle=none;shape=connector;rounded=1;html=1;exitX=0.5;exitY=1;exitDx=0;exitDy=0;entryX=0.5;entryY=0;entryDx=0;entryDy=0;labelBackgroundColor=default;strokeColor=default;fontFamily=Helvetica;fontSize=11;fontColor=default;endArrow=classic;" parent="1" source="M5Or0eh-THsgW0GvTMT4-16" target="M5Or0eh-THsgW0GvTMT4-17" edge="1">
                    <mxGeometry relative="1" as="geometry"/>
                </mxCell>
                <mxCell id="M5Or0eh-THsgW0GvTMT4-16" value="sum = sum + term" style="whiteSpace=wrap;html=1;fontSize=11;strokeWidth=2;" parent="1" vertex="1">
                    <mxGeometry x="70" y="440" width="120" height="20" as="geometry"/>
                </mxCell>
                <mxCell id="M5Or0eh-THsgW0GvTMT4-28" style="edgeStyle=none;shape=connector;rounded=1;html=1;exitX=0.5;exitY=1;exitDx=0;exitDy=0;entryX=0.5;entryY=0;entryDx=0;entryDy=0;labelBackgroundColor=default;strokeColor=default;fontFamily=Helvetica;fontSize=11;fontColor=default;endArrow=classic;" parent="1" source="M5Or0eh-THsgW0GvTMT4-17" target="M5Or0eh-THsgW0GvTMT4-26" edge="1">
                    <mxGeometry relative="1" as="geometry"/>
                </mxCell>
                <mxCell id="M5Or0eh-THsgW0GvTMT4-17" value="deno = deno + 1" style="whiteSpace=wrap;html=1;fontSize=11;strokeWidth=2;" parent="1" vertex="1">
                    <mxGeometry x="70" y="490" width="120" height="20" as="geometry"/>
                </mxCell>
                <mxCell id="M5Or0eh-THsgW0GvTMT4-29" style="edgeStyle=none;shape=connector;rounded=1;html=1;exitX=0.5;exitY=1;exitDx=0;exitDy=0;labelBackgroundColor=default;strokeColor=default;fontFamily=Helvetica;fontSize=11;fontColor=default;endArrow=classic;" parent="1" source="M5Or0eh-THsgW0GvTMT4-26" edge="1">
                    <mxGeometry relative="1" as="geometry">
                        <mxPoint x="130" y="610" as="targetPoint"/>
                    </mxGeometry>
                </mxCell>
                <mxCell id="M5Or0eh-THsgW0GvTMT4-35" value="Y" style="edgeLabel;html=1;align=right;verticalAlign=middle;resizable=0;points=[];fontSize=11;fontFamily=Helvetica;fontColor=default;" parent="M5Or0eh-THsgW0GvTMT4-29" vertex="1" connectable="0">
                    <mxGeometry x="-0.4133" relative="1" as="geometry">
                        <mxPoint y="1" as="offset"/>
                    </mxGeometry>
                </mxCell>
                <mxCell id="M5Or0eh-THsgW0GvTMT4-26" value="deno &amp;gt; 100" style="rhombus;whiteSpace=wrap;html=1;strokeColor=default;strokeWidth=2;fontFamily=Helvetica;fontSize=11;fontColor=default;fillColor=default;" parent="1" vertex="1">
                    <mxGeometry x="90" y="540" width="80" height="40" as="geometry"/>
                </mxCell>
                <mxCell id="M5Or0eh-THsgW0GvTMT4-32" value="" style="edgeStyle=elbowEdgeStyle;elbow=horizontal;endArrow=classic;html=1;curved=0;rounded=0;endSize=8;startSize=8;labelBackgroundColor=default;strokeColor=default;fontFamily=Helvetica;fontSize=11;fontColor=default;shape=connector;exitX=0;exitY=0.5;exitDx=0;exitDy=0;" parent="1" source="M5Or0eh-THsgW0GvTMT4-26" edge="1">
                    <mxGeometry width="50" height="50" relative="1" as="geometry">
                        <mxPoint x="-20" y="440" as="sourcePoint"/>
                        <mxPoint x="130" y="320" as="targetPoint"/>
                        <Array as="points">
                            <mxPoint x="40" y="440"/>
                        </Array>
                    </mxGeometry>
                </mxCell>
                <mxCell id="M5Or0eh-THsgW0GvTMT4-34" value="N" style="edgeLabel;html=1;align=center;verticalAlign=bottom;resizable=0;points=[];fontSize=11;fontFamily=Helvetica;fontColor=default;" parent="M5Or0eh-THsgW0GvTMT4-32" vertex="1" connectable="0">
                    <mxGeometry x="-0.9088" y="1" relative="1" as="geometry">
                        <mxPoint x="-3" y="-1" as="offset"/>
                    </mxGeometry>
                </mxCell>
                <mxCell id="M5Or0eh-THsgW0GvTMT4-38" style="edgeStyle=none;shape=connector;rounded=1;html=1;exitX=0.5;exitY=1;exitDx=0;exitDy=0;entryX=0.5;entryY=0;entryDx=0;entryDy=0;entryPerimeter=0;labelBackgroundColor=default;strokeColor=default;fontFamily=Helvetica;fontSize=11;fontColor=default;endArrow=classic;" parent="1" source="M5Or0eh-THsgW0GvTMT4-37" target="M5Or0eh-THsgW0GvTMT4-3" edge="1">
                    <mxGeometry relative="1" as="geometry"/>
                </mxCell>
                <mxCell id="M5Or0eh-THsgW0GvTMT4-37" value="输出sum" style="shape=parallelogram;perimeter=parallelogramPerimeter;whiteSpace=wrap;html=1;fixedSize=1;strokeColor=default;strokeWidth=2;fontFamily=Helvetica;fontSize=11;fontColor=default;fillColor=default;size=10;" parent="1" vertex="1">
                    <mxGeometry x="90" y="610" width="80" height="30" as="geometry"/>
                </mxCell>
                <mxCell id="iZBt1eSW2KhIeRRfyOjF-1" value="&lt;h1&gt;例2.9&lt;/h1&gt;&lt;div&gt;求1-(1/2)+(1/3)-(1/4)+...+(1/99)-(1/100)&lt;/div&gt;" style="text;html=1;strokeColor=none;fillColor=none;spacing=5;spacingTop=-20;whiteSpace=wrap;overflow=hidden;rounded=0;" vertex="1" parent="1">
                    <mxGeometry x="40" y="40" width="220" height="80" as="geometry"/>
                </mxCell>
            </root>
        </mxGraphModel>
    </diagram>
    <diagram id="JWM6UhmlhWVTNnKtoUfG" name="p2.10">
        <mxGraphModel dx="1067" dy="779" grid="1" gridSize="10" guides="1" tooltips="1" connect="1" arrows="1" fold="1" page="1" pageScale="1" pageWidth="827" pageHeight="1169" math="0" shadow="0">
            <root>
                <mxCell id="0"/>
                <mxCell id="1" parent="0"/>
                <mxCell id="1BOeKIixkwTEVi8Dldb7-3" value="" style="edgeStyle=none;html=1;" edge="1" parent="1" source="_ghKH-Tzfw_V3nQfiwIj-1" target="1BOeKIixkwTEVi8Dldb7-2">
                    <mxGeometry relative="1" as="geometry"/>
                </mxCell>
                <mxCell id="_ghKH-Tzfw_V3nQfiwIj-1" value="开始" style="strokeWidth=2;html=1;shape=mxgraph.flowchart.terminator;whiteSpace=wrap;" vertex="1" parent="1">
                    <mxGeometry x="70" y="120" width="80" height="40" as="geometry"/>
                </mxCell>
                <mxCell id="1BOeKIixkwTEVi8Dldb7-1" value="&lt;h1&gt;例2.10&lt;/h1&gt;&lt;div&gt;对一个大于或等于3的正整数,判断它是不是一个素数&lt;/div&gt;" style="text;html=1;strokeColor=none;fillColor=none;spacing=5;spacingTop=-20;whiteSpace=wrap;overflow=hidden;rounded=0;" vertex="1" parent="1">
                    <mxGeometry x="40" y="40" width="310" height="80" as="geometry"/>
                </mxCell>
                <mxCell id="1BOeKIixkwTEVi8Dldb7-5" value="" style="edgeStyle=none;html=1;" edge="1" parent="1" source="1BOeKIixkwTEVi8Dldb7-2" target="1BOeKIixkwTEVi8Dldb7-4">
                    <mxGeometry relative="1" as="geometry"/>
                </mxCell>
                <mxCell id="1BOeKIixkwTEVi8Dldb7-2" value="输入n" style="shape=parallelogram;perimeter=parallelogramPerimeter;whiteSpace=wrap;html=1;fixedSize=1;strokeWidth=2;size=10;" vertex="1" parent="1">
                    <mxGeometry x="70" y="190" width="80" height="30" as="geometry"/>
                </mxCell>
                <mxCell id="1BOeKIixkwTEVi8Dldb7-8" style="edgeStyle=none;html=1;exitX=0.5;exitY=1;exitDx=0;exitDy=0;entryX=0.5;entryY=0;entryDx=0;entryDy=0;" edge="1" parent="1" source="1BOeKIixkwTEVi8Dldb7-4" target="1BOeKIixkwTEVi8Dldb7-7">
                    <mxGeometry relative="1" as="geometry"/>
                </mxCell>
                <mxCell id="1BOeKIixkwTEVi8Dldb7-4" value="i = 2" style="whiteSpace=wrap;html=1;strokeWidth=2;" vertex="1" parent="1">
                    <mxGeometry x="70" y="250" width="80" height="20" as="geometry"/>
                </mxCell>
                <mxCell id="1BOeKIixkwTEVi8Dldb7-10" value="" style="edgeStyle=none;html=1;" edge="1" parent="1" source="1BOeKIixkwTEVi8Dldb7-7" target="1BOeKIixkwTEVi8Dldb7-9">
                    <mxGeometry relative="1" as="geometry"/>
                </mxCell>
                <mxCell id="1BOeKIixkwTEVi8Dldb7-7" value="r = n % i" style="whiteSpace=wrap;html=1;strokeWidth=2;" vertex="1" parent="1">
                    <mxGeometry x="70" y="300" width="80" height="20" as="geometry"/>
                </mxCell>
                <mxCell id="1BOeKIixkwTEVi8Dldb7-12" style="edgeStyle=none;html=1;exitX=0.5;exitY=1;exitDx=0;exitDy=0;entryX=0.5;entryY=0;entryDx=0;entryDy=0;" edge="1" parent="1" source="1BOeKIixkwTEVi8Dldb7-9" target="1BOeKIixkwTEVi8Dldb7-11">
                    <mxGeometry relative="1" as="geometry"/>
                </mxCell>
                <mxCell id="1BOeKIixkwTEVi8Dldb7-18" value="N" style="edgeLabel;html=1;align=left;verticalAlign=middle;resizable=0;points=[];" vertex="1" connectable="0" parent="1BOeKIixkwTEVi8Dldb7-12">
                    <mxGeometry x="-0.3845" y="2" relative="1" as="geometry">
                        <mxPoint x="-2" as="offset"/>
                    </mxGeometry>
                </mxCell>
                <mxCell id="1BOeKIixkwTEVi8Dldb7-9" value="r = 0?" style="rhombus;whiteSpace=wrap;html=1;strokeWidth=2;" vertex="1" parent="1">
                    <mxGeometry x="70" y="350" width="80" height="40" as="geometry"/>
                </mxCell>
                <mxCell id="1BOeKIixkwTEVi8Dldb7-14" style="edgeStyle=none;html=1;exitX=0.5;exitY=1;exitDx=0;exitDy=0;entryX=0.5;entryY=0;entryDx=0;entryDy=0;" edge="1" parent="1" source="1BOeKIixkwTEVi8Dldb7-11" target="1BOeKIixkwTEVi8Dldb7-13">
                    <mxGeometry relative="1" as="geometry"/>
                </mxCell>
                <mxCell id="1BOeKIixkwTEVi8Dldb7-11" value="i = i + 1" style="whiteSpace=wrap;html=1;strokeWidth=2;" vertex="1" parent="1">
                    <mxGeometry x="70" y="420" width="80" height="20" as="geometry"/>
                </mxCell>
                <mxCell id="1BOeKIixkwTEVi8Dldb7-23" style="edgeStyle=none;html=1;exitX=0.5;exitY=1;exitDx=0;exitDy=0;entryX=0.5;entryY=0;entryDx=0;entryDy=0;" edge="1" parent="1" source="1BOeKIixkwTEVi8Dldb7-13" target="1BOeKIixkwTEVi8Dldb7-22">
                    <mxGeometry relative="1" as="geometry"/>
                </mxCell>
                <mxCell id="1BOeKIixkwTEVi8Dldb7-13" value="i &amp;gt; n" style="rhombus;whiteSpace=wrap;html=1;strokeWidth=2;" vertex="1" parent="1">
                    <mxGeometry x="70" y="470" width="80" height="40" as="geometry"/>
                </mxCell>
                <mxCell id="1BOeKIixkwTEVi8Dldb7-16" value="" style="edgeStyle=elbowEdgeStyle;elbow=horizontal;endArrow=classic;html=1;curved=0;rounded=0;endSize=8;startSize=8;exitX=0;exitY=0.5;exitDx=0;exitDy=0;" edge="1" parent="1" source="1BOeKIixkwTEVi8Dldb7-13">
                    <mxGeometry width="50" height="50" relative="1" as="geometry">
                        <mxPoint x="150" y="460" as="sourcePoint"/>
                        <mxPoint x="110" y="280" as="targetPoint"/>
                        <Array as="points">
                            <mxPoint x="40" y="390"/>
                        </Array>
                    </mxGeometry>
                </mxCell>
                <mxCell id="1BOeKIixkwTEVi8Dldb7-17" value="N" style="edgeLabel;html=1;align=center;verticalAlign=bottom;resizable=0;points=[];" vertex="1" connectable="0" parent="1BOeKIixkwTEVi8Dldb7-16">
                    <mxGeometry x="-0.9247" relative="1" as="geometry">
                        <mxPoint x="2" as="offset"/>
                    </mxGeometry>
                </mxCell>
                <mxCell id="1BOeKIixkwTEVi8Dldb7-19" value="输出&lt;br&gt;n不是素数" style="shape=parallelogram;perimeter=parallelogramPerimeter;whiteSpace=wrap;html=1;fixedSize=1;strokeWidth=2;size=10;" vertex="1" parent="1">
                    <mxGeometry x="170" y="450" width="80" height="30" as="geometry"/>
                </mxCell>
                <mxCell id="1BOeKIixkwTEVi8Dldb7-21" value="" style="edgeStyle=segmentEdgeStyle;endArrow=classic;html=1;curved=0;rounded=0;endSize=8;startSize=8;exitX=1;exitY=0.5;exitDx=0;exitDy=0;entryX=0.5;entryY=0;entryDx=0;entryDy=0;" edge="1" parent="1" source="1BOeKIixkwTEVi8Dldb7-9" target="1BOeKIixkwTEVi8Dldb7-19">
                    <mxGeometry width="50" height="50" relative="1" as="geometry">
                        <mxPoint x="180" y="360" as="sourcePoint"/>
                        <mxPoint x="230" y="310" as="targetPoint"/>
                    </mxGeometry>
                </mxCell>
                <mxCell id="1BOeKIixkwTEVi8Dldb7-26" style="edgeStyle=none;html=1;exitX=0.5;exitY=1;exitDx=0;exitDy=0;entryX=0.5;entryY=0;entryDx=0;entryDy=0;entryPerimeter=0;" edge="1" parent="1" source="1BOeKIixkwTEVi8Dldb7-22" target="1BOeKIixkwTEVi8Dldb7-25">
                    <mxGeometry relative="1" as="geometry"/>
                </mxCell>
                <mxCell id="1BOeKIixkwTEVi8Dldb7-22" value="输出&lt;br&gt;n是素数" style="shape=parallelogram;perimeter=parallelogramPerimeter;whiteSpace=wrap;html=1;fixedSize=1;strokeWidth=2;size=10;" vertex="1" parent="1">
                    <mxGeometry x="70" y="540" width="80" height="30" as="geometry"/>
                </mxCell>
                <mxCell id="1BOeKIixkwTEVi8Dldb7-25" value="结束" style="strokeWidth=2;html=1;shape=mxgraph.flowchart.terminator;whiteSpace=wrap;" vertex="1" parent="1">
                    <mxGeometry x="70" y="600" width="80" height="40" as="geometry"/>
                </mxCell>
                <mxCell id="1BOeKIixkwTEVi8Dldb7-30" value="" style="edgeStyle=segmentEdgeStyle;endArrow=classic;html=1;curved=0;rounded=0;endSize=8;startSize=8;exitX=0.5;exitY=1;exitDx=0;exitDy=0;" edge="1" parent="1" source="1BOeKIixkwTEVi8Dldb7-19">
                    <mxGeometry width="50" height="50" relative="1" as="geometry">
                        <mxPoint x="210" y="435" as="sourcePoint"/>
                        <mxPoint x="110" y="580" as="targetPoint"/>
                        <Array as="points">
                            <mxPoint x="210" y="580"/>
                            <mxPoint x="190" y="580"/>
                        </Array>
                    </mxGeometry>
                </mxCell>
            </root>
        </mxGraphModel>
    </diagram>
    <diagram id="lQZE5H-O5-qx1rFHbaij" name="p2.5.3">
        <mxGraphModel dx="792" dy="445" grid="1" gridSize="10" guides="1" tooltips="1" connect="1" arrows="1" fold="1" page="1" pageScale="1" pageWidth="827" pageHeight="1169" math="0" shadow="0">
            <root>
                <mxCell id="0"/>
                <mxCell id="1" parent="0"/>
                <mxCell id="CEuxcvpg9qi-bQwgrKVK-8" value="" style="rounded=0;whiteSpace=wrap;html=1;dashed=1;fillColor=none;" vertex="1" parent="1">
                    <mxGeometry x="40" y="400" width="320" height="160" as="geometry"/>
                </mxCell>
                <mxCell id="CEuxcvpg9qi-bQwgrKVK-7" value="" style="rounded=0;whiteSpace=wrap;html=1;dashed=1;fillColor=none;" vertex="1" parent="1">
                    <mxGeometry x="40" y="160" width="120" height="160" as="geometry"/>
                </mxCell>
                <mxCell id="CEuxcvpg9qi-bQwgrKVK-1" value="&lt;h1&gt;基本结构&lt;/h1&gt;" style="text;html=1;strokeColor=none;fillColor=none;spacing=5;spacingTop=-20;whiteSpace=wrap;overflow=hidden;rounded=0;" vertex="1" parent="1">
                    <mxGeometry x="40" y="40" width="190" height="80" as="geometry"/>
                </mxCell>
                <mxCell id="CEuxcvpg9qi-bQwgrKVK-4" style="edgeStyle=none;html=1;exitX=0.5;exitY=1;exitDx=0;exitDy=0;entryX=0.5;entryY=0;entryDx=0;entryDy=0;" edge="1" parent="1" source="CEuxcvpg9qi-bQwgrKVK-2" target="CEuxcvpg9qi-bQwgrKVK-3">
                    <mxGeometry relative="1" as="geometry"/>
                </mxCell>
                <mxCell id="CEuxcvpg9qi-bQwgrKVK-2" value="A" style="rounded=0;whiteSpace=wrap;html=1;" vertex="1" parent="1">
                    <mxGeometry x="60" y="180" width="80" height="40" as="geometry"/>
                </mxCell>
                <mxCell id="CEuxcvpg9qi-bQwgrKVK-5" style="edgeStyle=none;html=1;exitX=0.5;exitY=1;exitDx=0;exitDy=0;" edge="1" parent="1" source="CEuxcvpg9qi-bQwgrKVK-3">
                    <mxGeometry relative="1" as="geometry">
                        <mxPoint x="100" y="340" as="targetPoint"/>
                    </mxGeometry>
                </mxCell>
                <mxCell id="CEuxcvpg9qi-bQwgrKVK-3" value="B" style="rounded=0;whiteSpace=wrap;html=1;" vertex="1" parent="1">
                    <mxGeometry x="60" y="260" width="80" height="40" as="geometry"/>
                </mxCell>
                <mxCell id="CEuxcvpg9qi-bQwgrKVK-6" value="" style="endArrow=classic;html=1;entryX=0.5;entryY=0;entryDx=0;entryDy=0;exitX=0.211;exitY=1;exitDx=0;exitDy=0;exitPerimeter=0;" edge="1" parent="1" target="CEuxcvpg9qi-bQwgrKVK-2">
                    <mxGeometry width="50" height="50" relative="1" as="geometry">
                        <mxPoint x="100.09000000000015" y="140" as="sourcePoint"/>
                        <mxPoint x="100" y="180" as="targetPoint"/>
                    </mxGeometry>
                </mxCell>
                <mxCell id="CEuxcvpg9qi-bQwgrKVK-10" value="A" style="rounded=0;whiteSpace=wrap;html=1;" vertex="1" parent="1">
                    <mxGeometry x="80" y="470" width="80" height="40" as="geometry"/>
                </mxCell>
                <mxCell id="CEuxcvpg9qi-bQwgrKVK-12" value="B" style="rounded=0;whiteSpace=wrap;html=1;" vertex="1" parent="1">
                    <mxGeometry x="240" y="470" width="80" height="40" as="geometry"/>
                </mxCell>
                <mxCell id="CEuxcvpg9qi-bQwgrKVK-15" value="P" style="rhombus;whiteSpace=wrap;html=1;strokeColor=default;fontFamily=Helvetica;fontSize=12;fontColor=default;fillColor=default;" vertex="1" parent="1">
                    <mxGeometry x="160" y="420" width="80" height="40" as="geometry"/>
                </mxCell>
                <mxCell id="CEuxcvpg9qi-bQwgrKVK-16" value="" style="endArrow=classic;html=1;fontFamily=Helvetica;fontSize=12;fontColor=default;entryX=0.5;entryY=0;entryDx=0;entryDy=0;" edge="1" parent="1" target="CEuxcvpg9qi-bQwgrKVK-15">
                    <mxGeometry width="50" height="50" relative="1" as="geometry">
                        <mxPoint x="200" y="380" as="sourcePoint"/>
                        <mxPoint x="250" y="330" as="targetPoint"/>
                    </mxGeometry>
                </mxCell>
                <mxCell id="CEuxcvpg9qi-bQwgrKVK-17" value="" style="edgeStyle=segmentEdgeStyle;endArrow=classic;html=1;curved=0;rounded=0;endSize=8;startSize=8;fontFamily=Helvetica;fontSize=12;fontColor=default;exitX=0;exitY=0.5;exitDx=0;exitDy=0;entryX=0.5;entryY=0;entryDx=0;entryDy=0;" edge="1" parent="1" source="CEuxcvpg9qi-bQwgrKVK-15" target="CEuxcvpg9qi-bQwgrKVK-10">
                    <mxGeometry width="50" height="50" relative="1" as="geometry">
                        <mxPoint x="180" y="460" as="sourcePoint"/>
                        <mxPoint x="230" y="410" as="targetPoint"/>
                    </mxGeometry>
                </mxCell>
                <mxCell id="CEuxcvpg9qi-bQwgrKVK-23" value="Y" style="edgeLabel;html=1;align=center;verticalAlign=bottom;resizable=0;points=[];fontSize=12;fontFamily=Helvetica;fontColor=default;" vertex="1" connectable="0" parent="CEuxcvpg9qi-bQwgrKVK-17">
                    <mxGeometry x="-0.6621" relative="1" as="geometry">
                        <mxPoint x="-6" as="offset"/>
                    </mxGeometry>
                </mxCell>
                <mxCell id="CEuxcvpg9qi-bQwgrKVK-18" value="" style="edgeStyle=segmentEdgeStyle;endArrow=classic;html=1;curved=0;rounded=0;endSize=8;startSize=8;fontFamily=Helvetica;fontSize=12;fontColor=default;entryX=0.5;entryY=0;entryDx=0;entryDy=0;exitX=1;exitY=0.5;exitDx=0;exitDy=0;" edge="1" parent="1" source="CEuxcvpg9qi-bQwgrKVK-15" target="CEuxcvpg9qi-bQwgrKVK-12">
                    <mxGeometry width="50" height="50" relative="1" as="geometry">
                        <mxPoint x="180" y="480" as="sourcePoint"/>
                        <mxPoint x="250" y="370" as="targetPoint"/>
                        <Array as="points">
                            <mxPoint x="280" y="440"/>
                        </Array>
                    </mxGeometry>
                </mxCell>
                <mxCell id="CEuxcvpg9qi-bQwgrKVK-24" value="N" style="edgeLabel;html=1;align=center;verticalAlign=bottom;resizable=0;points=[];fontSize=12;fontFamily=Helvetica;fontColor=default;" vertex="1" connectable="0" parent="CEuxcvpg9qi-bQwgrKVK-18">
                    <mxGeometry x="-0.6583" relative="1" as="geometry">
                        <mxPoint x="6" as="offset"/>
                    </mxGeometry>
                </mxCell>
                <mxCell id="CEuxcvpg9qi-bQwgrKVK-20" value="" style="edgeStyle=segmentEdgeStyle;endArrow=classic;html=1;curved=0;rounded=0;endSize=8;startSize=8;fontFamily=Helvetica;fontSize=12;fontColor=default;exitX=0.5;exitY=1;exitDx=0;exitDy=0;" edge="1" parent="1" source="CEuxcvpg9qi-bQwgrKVK-10">
                    <mxGeometry width="50" height="50" relative="1" as="geometry">
                        <mxPoint x="180" y="520" as="sourcePoint"/>
                        <mxPoint x="200" y="540" as="targetPoint"/>
                        <Array as="points">
                            <mxPoint x="120" y="540"/>
                        </Array>
                    </mxGeometry>
                </mxCell>
                <mxCell id="CEuxcvpg9qi-bQwgrKVK-21" value="" style="endArrow=classic;html=1;fontFamily=Helvetica;fontSize=12;fontColor=default;" edge="1" parent="1">
                    <mxGeometry width="50" height="50" relative="1" as="geometry">
                        <mxPoint x="200" y="540" as="sourcePoint"/>
                        <mxPoint x="200" y="580" as="targetPoint"/>
                    </mxGeometry>
                </mxCell>
                <mxCell id="CEuxcvpg9qi-bQwgrKVK-22" value="" style="edgeStyle=segmentEdgeStyle;endArrow=classic;html=1;curved=0;rounded=0;endSize=8;startSize=8;fontFamily=Helvetica;fontSize=12;fontColor=default;exitX=0.5;exitY=1;exitDx=0;exitDy=0;" edge="1" parent="1" source="CEuxcvpg9qi-bQwgrKVK-12">
                    <mxGeometry width="50" height="50" relative="1" as="geometry">
                        <mxPoint x="180" y="560" as="sourcePoint"/>
                        <mxPoint x="200" y="540" as="targetPoint"/>
                        <Array as="points">
                            <mxPoint x="280" y="540"/>
                        </Array>
                    </mxGeometry>
                </mxCell>
                <mxCell id="CEuxcvpg9qi-bQwgrKVK-25" value="" style="rounded=0;whiteSpace=wrap;html=1;dashed=1;fillColor=none;" vertex="1" parent="1">
                    <mxGeometry x="400" y="400" width="280" height="160" as="geometry"/>
                </mxCell>
                <mxCell id="CEuxcvpg9qi-bQwgrKVK-26" value="A" style="rounded=0;whiteSpace=wrap;html=1;" vertex="1" parent="1">
                    <mxGeometry x="440" y="470" width="80" height="40" as="geometry"/>
                </mxCell>
                <mxCell id="CEuxcvpg9qi-bQwgrKVK-28" value="P" style="rhombus;whiteSpace=wrap;html=1;strokeColor=default;fontFamily=Helvetica;fontSize=12;fontColor=default;fillColor=default;" vertex="1" parent="1">
                    <mxGeometry x="520" y="420" width="80" height="40" as="geometry"/>
                </mxCell>
                <mxCell id="CEuxcvpg9qi-bQwgrKVK-29" value="" style="endArrow=classic;html=1;fontFamily=Helvetica;fontSize=12;fontColor=default;entryX=0.5;entryY=0;entryDx=0;entryDy=0;" edge="1" target="CEuxcvpg9qi-bQwgrKVK-28" parent="1">
                    <mxGeometry width="50" height="50" relative="1" as="geometry">
                        <mxPoint x="560" y="380" as="sourcePoint"/>
                        <mxPoint x="610" y="330" as="targetPoint"/>
                    </mxGeometry>
                </mxCell>
                <mxCell id="CEuxcvpg9qi-bQwgrKVK-30" value="" style="edgeStyle=segmentEdgeStyle;endArrow=classic;html=1;curved=0;rounded=0;endSize=8;startSize=8;fontFamily=Helvetica;fontSize=12;fontColor=default;exitX=0;exitY=0.5;exitDx=0;exitDy=0;entryX=0.5;entryY=0;entryDx=0;entryDy=0;" edge="1" source="CEuxcvpg9qi-bQwgrKVK-28" target="CEuxcvpg9qi-bQwgrKVK-26" parent="1">
                    <mxGeometry width="50" height="50" relative="1" as="geometry">
                        <mxPoint x="540" y="460" as="sourcePoint"/>
                        <mxPoint x="590" y="410" as="targetPoint"/>
                    </mxGeometry>
                </mxCell>
                <mxCell id="CEuxcvpg9qi-bQwgrKVK-31" value="Y" style="edgeLabel;html=1;align=center;verticalAlign=bottom;resizable=0;points=[];fontSize=12;fontFamily=Helvetica;fontColor=default;" vertex="1" connectable="0" parent="CEuxcvpg9qi-bQwgrKVK-30">
                    <mxGeometry x="-0.6621" relative="1" as="geometry">
                        <mxPoint x="-6" as="offset"/>
                    </mxGeometry>
                </mxCell>
                <mxCell id="CEuxcvpg9qi-bQwgrKVK-34" value="" style="edgeStyle=segmentEdgeStyle;endArrow=classic;html=1;curved=0;rounded=0;endSize=8;startSize=8;fontFamily=Helvetica;fontSize=12;fontColor=default;exitX=0.5;exitY=1;exitDx=0;exitDy=0;" edge="1" source="CEuxcvpg9qi-bQwgrKVK-26" parent="1">
                    <mxGeometry width="50" height="50" relative="1" as="geometry">
                        <mxPoint x="540" y="520" as="sourcePoint"/>
                        <mxPoint x="560" y="540" as="targetPoint"/>
                        <Array as="points">
                            <mxPoint x="480" y="540"/>
                        </Array>
                    </mxGeometry>
                </mxCell>
                <mxCell id="CEuxcvpg9qi-bQwgrKVK-35" value="" style="endArrow=classic;html=1;fontFamily=Helvetica;fontSize=12;fontColor=default;" edge="1" parent="1">
                    <mxGeometry width="50" height="50" relative="1" as="geometry">
                        <mxPoint x="560" y="540" as="sourcePoint"/>
                        <mxPoint x="560" y="580" as="targetPoint"/>
                    </mxGeometry>
                </mxCell>
                <mxCell id="CEuxcvpg9qi-bQwgrKVK-37" value="" style="edgeStyle=elbowEdgeStyle;elbow=horizontal;endArrow=classic;html=1;curved=0;rounded=0;endSize=8;startSize=8;fontFamily=Helvetica;fontSize=12;fontColor=default;exitX=1;exitY=0.5;exitDx=0;exitDy=0;" edge="1" parent="1" source="CEuxcvpg9qi-bQwgrKVK-28">
                    <mxGeometry width="50" height="50" relative="1" as="geometry">
                        <mxPoint x="670" y="550" as="sourcePoint"/>
                        <mxPoint x="560" y="540" as="targetPoint"/>
                        <Array as="points">
                            <mxPoint x="640" y="490"/>
                        </Array>
                    </mxGeometry>
                </mxCell>
                <mxCell id="CEuxcvpg9qi-bQwgrKVK-38" value="N" style="edgeLabel;html=1;align=center;verticalAlign=bottom;resizable=0;points=[];fontSize=12;fontFamily=Helvetica;fontColor=default;" vertex="1" connectable="0" parent="CEuxcvpg9qi-bQwgrKVK-37">
                    <mxGeometry x="-0.8473" y="-1" relative="1" as="geometry">
                        <mxPoint x="3" y="-1" as="offset"/>
                    </mxGeometry>
                </mxCell>
                <mxCell id="CEuxcvpg9qi-bQwgrKVK-39" value="" style="rounded=0;whiteSpace=wrap;html=1;dashed=1;fillColor=none;" vertex="1" parent="1">
                    <mxGeometry x="40" y="640" width="240" height="160" as="geometry"/>
                </mxCell>
                <mxCell id="CEuxcvpg9qi-bQwgrKVK-40" value="A" style="rounded=0;whiteSpace=wrap;html=1;" vertex="1" parent="1">
                    <mxGeometry x="160" y="690" width="80" height="40" as="geometry"/>
                </mxCell>
                <mxCell id="CEuxcvpg9qi-bQwgrKVK-41" value="P" style="rhombus;whiteSpace=wrap;html=1;strokeColor=default;fontFamily=Helvetica;fontSize=12;fontColor=default;fillColor=default;" vertex="1" parent="1">
                    <mxGeometry x="80" y="740" width="80" height="40" as="geometry"/>
                </mxCell>
                <mxCell id="CEuxcvpg9qi-bQwgrKVK-42" value="" style="endArrow=classic;html=1;fontFamily=Helvetica;fontSize=12;fontColor=default;entryX=0.5;entryY=0;entryDx=0;entryDy=0;" edge="1" target="CEuxcvpg9qi-bQwgrKVK-41" parent="1">
                    <mxGeometry width="50" height="50" relative="1" as="geometry">
                        <mxPoint x="120" y="620" as="sourcePoint"/>
                        <mxPoint x="170" y="590" as="targetPoint"/>
                    </mxGeometry>
                </mxCell>
                <mxCell id="CEuxcvpg9qi-bQwgrKVK-46" value="" style="endArrow=classic;html=1;fontFamily=Helvetica;fontSize=12;fontColor=default;exitX=0.5;exitY=1;exitDx=0;exitDy=0;" edge="1" parent="1" source="CEuxcvpg9qi-bQwgrKVK-41">
                    <mxGeometry width="50" height="50" relative="1" as="geometry">
                        <mxPoint x="120" y="800" as="sourcePoint"/>
                        <mxPoint x="120" y="820" as="targetPoint"/>
                    </mxGeometry>
                </mxCell>
                <mxCell id="CEuxcvpg9qi-bQwgrKVK-52" value="N" style="edgeLabel;html=1;align=left;verticalAlign=middle;resizable=0;points=[];fontSize=12;fontFamily=Helvetica;fontColor=default;" vertex="1" connectable="0" parent="CEuxcvpg9qi-bQwgrKVK-46">
                    <mxGeometry x="-0.7266" y="-1" relative="1" as="geometry">
                        <mxPoint x="1" y="2" as="offset"/>
                    </mxGeometry>
                </mxCell>
                <mxCell id="CEuxcvpg9qi-bQwgrKVK-49" value="" style="edgeStyle=segmentEdgeStyle;endArrow=classic;html=1;curved=0;rounded=0;endSize=8;startSize=8;fontFamily=Helvetica;fontSize=12;fontColor=default;exitX=1;exitY=0.5;exitDx=0;exitDy=0;entryX=0.5;entryY=1;entryDx=0;entryDy=0;" edge="1" parent="1" source="CEuxcvpg9qi-bQwgrKVK-41" target="CEuxcvpg9qi-bQwgrKVK-40">
                    <mxGeometry width="50" height="50" relative="1" as="geometry">
                        <mxPoint x="160" y="774" as="sourcePoint"/>
                        <mxPoint x="210" y="724" as="targetPoint"/>
                    </mxGeometry>
                </mxCell>
                <mxCell id="CEuxcvpg9qi-bQwgrKVK-51" value="Y" style="edgeLabel;html=1;align=center;verticalAlign=bottom;resizable=0;points=[];fontSize=12;fontFamily=Helvetica;fontColor=default;" vertex="1" connectable="0" parent="CEuxcvpg9qi-bQwgrKVK-49">
                    <mxGeometry x="-0.65" y="1" relative="1" as="geometry">
                        <mxPoint x="-4" y="1" as="offset"/>
                    </mxGeometry>
                </mxCell>
                <mxCell id="CEuxcvpg9qi-bQwgrKVK-50" value="" style="edgeStyle=segmentEdgeStyle;endArrow=classic;html=1;curved=0;rounded=0;endSize=8;startSize=8;fontFamily=Helvetica;fontSize=12;fontColor=default;exitX=0.5;exitY=0;exitDx=0;exitDy=0;" edge="1" parent="1" source="CEuxcvpg9qi-bQwgrKVK-40">
                    <mxGeometry width="50" height="50" relative="1" as="geometry">
                        <mxPoint x="310" y="680" as="sourcePoint"/>
                        <mxPoint x="120" y="660" as="targetPoint"/>
                        <Array as="points">
                            <mxPoint x="200" y="660"/>
                        </Array>
                    </mxGeometry>
                </mxCell>
                <mxCell id="CEuxcvpg9qi-bQwgrKVK-53" value="" style="rounded=0;whiteSpace=wrap;html=1;dashed=1;fillColor=none;" vertex="1" parent="1">
                    <mxGeometry x="320" y="640" width="200" height="160" as="geometry"/>
                </mxCell>
                <mxCell id="CEuxcvpg9qi-bQwgrKVK-65" style="edgeStyle=none;html=1;exitX=0.5;exitY=1;exitDx=0;exitDy=0;entryX=0.5;entryY=0;entryDx=0;entryDy=0;fontFamily=Helvetica;fontSize=12;fontColor=default;" edge="1" parent="1" source="CEuxcvpg9qi-bQwgrKVK-54" target="CEuxcvpg9qi-bQwgrKVK-55">
                    <mxGeometry relative="1" as="geometry"/>
                </mxCell>
                <mxCell id="CEuxcvpg9qi-bQwgrKVK-54" value="A" style="rounded=0;whiteSpace=wrap;html=1;" vertex="1" parent="1">
                    <mxGeometry x="360" y="660" width="80" height="40" as="geometry"/>
                </mxCell>
                <mxCell id="CEuxcvpg9qi-bQwgrKVK-55" value="P" style="rhombus;whiteSpace=wrap;html=1;strokeColor=default;fontFamily=Helvetica;fontSize=12;fontColor=default;fillColor=default;" vertex="1" parent="1">
                    <mxGeometry x="360" y="740" width="80" height="40" as="geometry"/>
                </mxCell>
                <mxCell id="CEuxcvpg9qi-bQwgrKVK-57" value="" style="endArrow=classic;html=1;fontFamily=Helvetica;fontSize=12;fontColor=default;exitX=0.5;exitY=1;exitDx=0;exitDy=0;" edge="1" source="CEuxcvpg9qi-bQwgrKVK-55" parent="1">
                    <mxGeometry width="50" height="50" relative="1" as="geometry">
                        <mxPoint x="400" y="800" as="sourcePoint"/>
                        <mxPoint x="400" y="820" as="targetPoint"/>
                    </mxGeometry>
                </mxCell>
                <mxCell id="CEuxcvpg9qi-bQwgrKVK-58" value="Y" style="edgeLabel;html=1;align=left;verticalAlign=middle;resizable=0;points=[];fontSize=12;fontFamily=Helvetica;fontColor=default;" vertex="1" connectable="0" parent="CEuxcvpg9qi-bQwgrKVK-57">
                    <mxGeometry x="-0.7266" y="-1" relative="1" as="geometry">
                        <mxPoint x="1" y="2" as="offset"/>
                    </mxGeometry>
                </mxCell>
                <mxCell id="CEuxcvpg9qi-bQwgrKVK-64" value="" style="endArrow=classic;html=1;fontFamily=Helvetica;fontSize=12;fontColor=default;entryX=0.5;entryY=0;entryDx=0;entryDy=0;" edge="1" parent="1" target="CEuxcvpg9qi-bQwgrKVK-54">
                    <mxGeometry width="50" height="50" relative="1" as="geometry">
                        <mxPoint x="400" y="620" as="sourcePoint"/>
                        <mxPoint x="520" y="700" as="targetPoint"/>
                    </mxGeometry>
                </mxCell>
                <mxCell id="CEuxcvpg9qi-bQwgrKVK-66" value="" style="edgeStyle=elbowEdgeStyle;elbow=horizontal;endArrow=classic;html=1;curved=0;rounded=0;endSize=8;startSize=8;fontFamily=Helvetica;fontSize=12;fontColor=default;exitX=1;exitY=0.5;exitDx=0;exitDy=0;entryX=1;entryY=0.5;entryDx=0;entryDy=0;" edge="1" parent="1" source="CEuxcvpg9qi-bQwgrKVK-55" target="CEuxcvpg9qi-bQwgrKVK-54">
                    <mxGeometry width="50" height="50" relative="1" as="geometry">
                        <mxPoint x="500" y="760" as="sourcePoint"/>
                        <mxPoint x="550" y="710" as="targetPoint"/>
                        <Array as="points">
                            <mxPoint x="480" y="720"/>
                        </Array>
                    </mxGeometry>
                </mxCell>
                <mxCell id="CEuxcvpg9qi-bQwgrKVK-67" value="N" style="edgeLabel;html=1;align=center;verticalAlign=bottom;resizable=0;points=[];fontSize=12;fontFamily=Helvetica;fontColor=default;" vertex="1" connectable="0" parent="CEuxcvpg9qi-bQwgrKVK-66">
                    <mxGeometry x="-0.803" y="-1" relative="1" as="geometry">
                        <mxPoint x="-6" y="-1" as="offset"/>
                    </mxGeometry>
                </mxCell>
            </root>
        </mxGraphModel>
    </diagram>
</mxfile>